<svg width="300" height="509" viewBox="0 0 300 509" fill="none" xmlns="http://www.w3.org/2000/svg">
<path fill-rule="evenodd" clip-rule="evenodd" d="M80.7035 27.6784C62.4472 45.2827 52.1377 69.1176 52.0014 94H52V94.5V168H91.2V94.5C91.2 79.4622 97.395 65.0404 108.422 54.4071C119.449 43.7737 134.405 37.8 150 37.8C165.595 37.8 180.551 43.7737 191.578 54.407C202.605 65.0403 208.8 79.4622 208.8 94.5V168H248V94.5V94H247.999C247.862 69.1175 237.553 45.2827 219.296 27.6784C200.918 9.95621 175.991 -4.08327e-06 150 0C124.009 4.08328e-06 99.0821 9.95623 80.7035 27.6784ZM52 209H248.5L300 260.5V457L248 509H52.5L0 456.5V261L52 209ZM175 334C175 344.337 168.726 353.21 159.778 357.016L184.641 413H115.359L140.222 357.016C131.274 353.21 125 344.337 125 334C125 320.193 136.193 309 150 309C163.807 309 175 320.193 175 334Z" fill="black"/>
</svg>
