<svg width="300" height="509" viewBox="0 0 300 509" fill="none" xmlns="http://www.w3.org/2000/svg">
<mask id="path-1-inside-1_1251_44" fill="white">
<path fill-rule="evenodd" clip-rule="evenodd" d="M80.7035 27.6784C62.4472 45.2827 52.1377 69.1176 52.0014 94H52V94.5V168H91.2V94.5C91.2 79.4622 97.395 65.0404 108.422 54.4071C119.449 43.7737 134.405 37.8 150 37.8C165.595 37.8 180.551 43.7737 191.578 54.407C202.605 65.0403 208.8 79.4622 208.8 94.5V168H248V94.5V94H247.999C247.862 69.1175 237.553 45.2827 219.296 27.6784C200.918 9.95621 175.991 -4.08327e-06 150 0C124.009 4.08328e-06 99.0821 9.95623 80.7035 27.6784ZM52 209H248.5L300 260.5V457L248 509H52.5L0 456.5V261L52 209ZM175 334C175 344.337 168.726 353.21 159.778 357.016L184.641 413H115.359L140.222 357.016C131.274 353.21 125 344.337 125 334C125 320.193 136.193 309 150 309C163.807 309 175 320.193 175 334Z"/>
</mask>
<path d="M52.0014 94V104H61.9467L62.0012 94.0548L52.0014 94ZM80.7035 27.6784L73.7622 20.48L73.7622 20.48L80.7035 27.6784ZM52 94V84H42V94H52ZM52 168H42V178H52V168ZM91.2 168V178H101.2V168H91.2ZM150 37.8L150 27.8L150 37.8ZM191.578 54.407L184.637 61.6055L184.637 61.6055L191.578 54.407ZM208.8 168H198.8V178H208.8V168ZM248 168V178H258V168H248ZM248 94H258V84H248V94ZM247.999 94L237.999 94.0548L238.053 104H247.999V94ZM219.296 27.6784L212.355 34.8768L212.355 34.8768L219.296 27.6784ZM150 0L150 -10L150 0ZM248.5 209L255.571 201.929L252.642 199H248.5V209ZM52 209V199H47.8579L44.9289 201.929L52 209ZM300 260.5H310V256.358L307.071 253.429L300 260.5ZM300 457L307.071 464.071L310 461.142V457H300ZM248 509V519H252.142L255.071 516.071L248 509ZM52.5 509L45.4289 516.071L48.3579 519H52.5V509ZM0 456.5H-10V460.642L-7.07107 463.571L0 456.5ZM0 261L-7.07107 253.929L-10 256.858V261H0ZM159.778 357.016L155.863 347.814L146.515 351.79L150.638 361.075L159.778 357.016ZM184.641 413V423H200.024L193.78 408.941L184.641 413ZM115.359 413L106.22 408.941L99.976 423H115.359V413ZM140.222 357.016L149.362 361.075L153.485 351.79L144.137 347.814L140.222 357.016ZM62.0012 94.0548C62.1225 71.924 71.2891 50.6485 87.6449 34.8769L73.7622 20.48C53.6054 39.9169 42.1529 66.3111 42.0015 93.9452L62.0012 94.0548ZM52 104H52.0014V84H52V104ZM62 94.5V94H42V94.5H62ZM62 168V94.5H42V168H62ZM91.2 158H52V178H91.2V158ZM81.2 94.5V168H101.2V94.5H81.2ZM101.481 47.2086C88.5403 59.6869 81.2 76.6903 81.2 94.5H101.2C101.2 82.2342 106.25 70.3938 115.363 61.6055L101.481 47.2086ZM150 27.8C131.868 27.8 114.409 34.7422 101.481 47.2086L115.363 61.6055C124.49 52.8052 136.942 47.8 150 47.8L150 27.8ZM198.519 47.2086C185.591 34.7422 168.132 27.8 150 27.8L150 47.8C163.058 47.8 175.51 52.8052 184.637 61.6055L198.519 47.2086ZM218.8 94.5C218.8 76.6903 211.46 59.6869 198.519 47.2086L184.637 61.6055C193.75 70.3938 198.8 82.2342 198.8 94.5H218.8ZM198.8 94.5V168H218.8V94.5H198.8ZM208.8 178H248V158H208.8V178ZM258 168V94.5H238V168H258ZM258 94.5V94H238V94.5H258ZM248 84H247.999V104H248V84ZM212.355 34.8768C228.711 50.6485 237.878 71.924 237.999 94.0548L257.998 93.9452C257.847 66.3111 246.395 39.9169 226.238 20.4799L212.355 34.8768ZM150 10C173.454 10 195.877 18.9877 212.355 34.8768L226.238 20.48C205.958 0.9247 178.528 -10 150 -10L150 10ZM87.6449 34.8769C104.122 18.9877 126.546 10 150 10L150 -10C121.472 -10 94.0417 0.924717 73.7622 20.48L87.6449 34.8769ZM248.5 199H52V219H248.5V199ZM307.071 253.429L255.571 201.929L241.429 216.071L292.929 267.571L307.071 253.429ZM310 457V260.5H290V457H310ZM255.071 516.071L307.071 464.071L292.929 449.929L240.929 501.929L255.071 516.071ZM52.5 519H248V499H52.5V519ZM-7.07107 463.571L45.4289 516.071L59.5711 501.929L7.07107 449.429L-7.07107 463.571ZM-10 261V456.5H10V261H-10ZM44.9289 201.929L-7.07107 253.929L7.07107 268.071L59.0711 216.071L44.9289 201.929ZM163.692 366.218C176.199 360.898 185 348.488 185 334H165C165 340.187 161.252 345.521 155.863 347.814L163.692 366.218ZM193.78 408.941L168.917 352.957L150.638 361.075L175.502 417.059L193.78 408.941ZM115.359 423H184.641V403H115.359V423ZM131.083 352.957L106.22 408.941L124.498 417.059L149.362 361.075L131.083 352.957ZM115 334C115 348.488 123.801 360.898 136.308 366.218L144.137 347.814C138.748 345.521 135 340.187 135 334H115ZM150 299C130.67 299 115 314.67 115 334H135C135 325.716 141.716 319 150 319V299ZM185 334C185 314.67 169.33 299 150 299V319C158.284 319 165 325.716 165 334H185Z" fill="black" mask="url(#path-1-inside-1_1251_44)"/>
</svg>
